<?xml version="1.0" encoding="UTF-8" standalone="no"?>
<svg
   height="54.695129"
   width="49.072983"
   version="1.1"
   id="svg14"
   sodipodi:docname="zulip_discrete.svg"
   inkscape:version="1.3.2 (091e20e, 2023-11-25)"
   xmlns:inkscape="http://www.inkscape.org/namespaces/inkscape"
   xmlns:sodipodi="http://sodipodi.sourceforge.net/DTD/sodipodi-0.dtd"
   xmlns:xlink="http://www.w3.org/1999/xlink"
   xmlns="http://www.w3.org/2000/svg"
   xmlns:svg="http://www.w3.org/2000/svg">
  <defs
     id="defs14" />
  <sodipodi:namedview
     id="namedview14"
     pagecolor="#ffffff"
     bordercolor="#000000"
     borderopacity="0.25"
     inkscape:showpageshadow="2"
     inkscape:pageopacity="0.0"
     inkscape:pagecheckerboard="0"
     inkscape:deskcolor="#d1d1d1"
     inkscape:zoom="2.4583333"
     inkscape:cx="38.644068"
     inkscape:cy="-13.423729"
     inkscape:window-width="1472"
     inkscape:window-height="431"
     inkscape:window-x="0"
     inkscape:window-y="38"
     inkscape:window-maximized="0"
     inkscape:current-layer="svg14" />
  <linearGradient
     id="a">
    <stop
       offset="0"
       stop-color="#fefefe"
       id="stop1" />
    <stop
       offset="1"
       stop-color="#fefefe"
       stop-opacity="0"
       id="stop2" />
  </linearGradient>
  <linearGradient
     id="b"
     gradientUnits="userSpaceOnUse"
     x1="36.357143"
     x2="36.357143"
     xlink:href="#a"
     y1="6"
     y2="63.893143"
     gradientTransform="translate(-23.176926,-21.912611)" />
  <filter
     id="c"
     color-interpolation-filters="sRGB"
     height="1.3915758"
     width="1.3915758"
     x="-0.19578789"
     y="-0.19578789">
    <feGaussianBlur
       stdDeviation="5.28"
       id="feGaussianBlur2" />
  </filter>
  <linearGradient
     id="d"
     gradientUnits="userSpaceOnUse"
     x1="48"
     x2="48"
     xlink:href="#a"
     y1="20.220806"
     y2="138.66119" />
  <radialGradient
     id="e"
     cx="48"
     cy="90.171875"
     gradientTransform="matrix(1.1573129,0,0,0.99590774,-7.551021,0.197132)"
     gradientUnits="userSpaceOnUse"
     r="42"
     xlink:href="#a" />
  <clipPath
     id="f">
    <rect
       height="84"
       rx="6"
       width="84"
       x="6"
       y="6"
       id="rect2" />
  </clipPath>
  <linearGradient
     id="g"
     gradientTransform="matrix(1.0058652,0,0,0.994169,100,0)"
     gradientUnits="userSpaceOnUse"
     x1="45.447727"
     x2="45.447727"
     y1="92.539597"
     y2="7.0165401">
    <stop
       offset="0"
       id="stop3" />
    <stop
       offset="1"
       stop-opacity=".588235"
       id="stop4" />
  </linearGradient>
  <linearGradient
     id="h"
     gradientTransform="matrix(1.0238095,0,0,1.0119048,-1.142857,-98.071429)"
     gradientUnits="userSpaceOnUse"
     x1="32.251034"
     x2="32.251034"
     xlink:href="#g"
     y1="6.1317081"
     y2="90.238609" />
  <linearGradient
     id="i"
     gradientTransform="translate(0,-97)"
     gradientUnits="userSpaceOnUse"
     x1="32.251034"
     x2="32.251034"
     xlink:href="#g"
     y1="6.1317081"
     y2="90.238609" />
  <linearGradient
     id="j"
     gradientUnits="userSpaceOnUse"
     x1="-90"
     x2="-6"
     y1="48"
     y2="48">
    <stop
       offset="0"
       stop-color="#7877fc"
       id="stop5" />
    <stop
       offset="1"
       stop-color="#50adff"
       id="stop6" />
  </linearGradient>
  <path
     d="m 49.072981,8.178213 c 0,2.755235 -1.237357,5.203236 -3.123144,6.688296 L 27.643245,31.215671 c -0.34,0.291438 -0.782002,-0.178525 -0.536714,-0.570711 l 6.715006,-13.444588 c 0.188217,-0.376434 -0.05586,-0.839067 -0.442,-0.839067 H 7.334293 C 3.300431,16.361305 0,12.679579 0,8.180642 0,3.680502 3.300431,9.8550528e-7 7.334293,9.8550528e-7 H 41.738688 C 45.77255,-0.00219901 49.072981,3.679276 49.072981,8.178213 Z M 7.334293,54.695131 h 34.404395 c 4.033862,0 7.334293,-3.681726 7.334293,-8.180663 0,-4.50014 -3.300431,-8.180641 -7.334293,-8.180641 H 15.693446 c -0.386143,0 -0.630217,-0.462655 -0.442002,-0.839067 l 6.715009,-13.444588 c 0.245286,-0.392208 -0.196706,-0.862149 -0.536715,-0.570711 L 3.123147,39.826194 C 1.237359,41.310051 0,43.759256 0,46.514468 c 0,4.498937 3.300431,8.180663 7.334293,8.180663 z"
     fill="none"
     opacity="0.1"
     stroke="#000000"
     stroke-width="2"
     id="path12" />
  <path
     d="m 49.072981,8.178213 c 0,2.755235 -1.237357,5.203236 -3.123144,6.688296 L 27.643245,31.215671 c -0.34,0.291438 -0.782002,-0.178525 -0.536714,-0.570711 l 6.715006,-13.444588 c 0.188217,-0.376434 -0.05586,-0.839067 -0.442,-0.839067 H 7.334293 C 3.300431,16.361305 0,12.679579 0,8.180642 0,3.680502 3.300431,9.8550528e-7 7.334293,9.8550528e-7 H 41.738688 C 45.77255,-0.00219901 49.072981,3.679276 49.072981,8.178213 Z M 7.334293,54.695131 h 34.404395 c 4.033862,0 7.334293,-3.681726 7.334293,-8.180663 0,-4.50014 -3.300431,-8.180641 -7.334293,-8.180641 H 15.693446 c -0.386143,0 -0.630217,-0.462655 -0.442002,-0.839067 l 6.715009,-13.444588 c 0.245286,-0.392208 -0.196706,-0.862149 -0.536715,-0.570711 L 3.123147,39.826194 C 1.237359,41.310051 0,43.759256 0,46.514468 c 0,4.498937 3.300431,8.180663 7.334293,8.180663 z"
     fill="none"
     opacity="0.1"
     stroke="#000000"
     stroke-width="4"
     id="path13" />
  <path
     d="m 49.072981,8.178213 c 0,2.755235 -1.237357,5.203236 -3.123144,6.688296 L 27.643245,31.215671 c -0.34,0.291438 -0.782002,-0.178525 -0.536714,-0.570711 l 6.715006,-13.444588 c 0.188217,-0.376434 -0.05586,-0.839067 -0.442,-0.839067 H 7.334293 C 3.300431,16.361305 0,12.679579 0,8.180642 0,3.680502 3.300431,9.8550528e-7 7.334293,9.8550528e-7 H 41.738688 C 45.77255,-0.00219901 49.072981,3.679276 49.072981,8.178213 Z M 7.334293,54.695131 h 34.404395 c 4.033862,0 7.334293,-3.681726 7.334293,-8.180663 0,-4.50014 -3.300431,-8.180641 -7.334293,-8.180641 H 15.693446 c -0.386143,0 -0.630217,-0.462655 -0.442002,-0.839067 l 6.715009,-13.444588 c 0.245286,-0.392208 -0.196706,-0.862149 -0.536715,-0.570711 L 3.123147,39.826194 C 1.237359,41.310051 0,43.759256 0,46.514468 c 0,4.498937 3.300431,8.180663 7.334293,8.180663 z"
     fill="#ffffff"
     stroke-width="0.121429"
     id="path14" />
</svg>
